# xmcd
#
# Track frame offsets: 
#        150
#        2336
#        23809
#        47394
#        62946
#        101480
#        125029
#        131931
#        151652
#        179210
#        221951
#        226792
#        252899
#        294357
#
# Disc length: 4370 seconds
#
# Revision: 0
# Processed by: cddbd v1.5.2PL0 Copyright (c) Steve Scherf et al.
# Submitted via: ExactAudioCopy v0.99pb5
#
DISCID=c211100e
DTITLE=Hamilton Loomis - Live In Dngland
DYEAR=2010
DGENRE=Blues
TTITLE0=Intro
TTITLE1=Pull Strings
TTITLE2=Workin' Real Hard
TTITLE3=Legendary
TTITLE4=What It Is
TTITLE5=No No No
TTITLE6=Come Back To Me
TTITLE7=Best Worst Day
TTITLE8=Time
TTITLE9=Bow Wow
TTITLE10=Bo Diddley Intro
TTITLE11=Bo Diddley - Who Do You Love Medley
TTITLE12=Get My Blues On
TTITLE13=Turnin' Heads [bonus track]
EXTD=
EXTT0=
EXTT1=
EXTT2=
EXTT3=
EXTT4=
EXTT5=
EXTT6=
EXTT7=
EXTT8=
EXTT9=
EXTT10=
EXTT11=
EXTT12=
EXTT13=
PLAYORDER=
